<?xml version="1.0" encoding="iso-8859-1"?>
<!-- Generator: Adobe Illustrator 19.0.0, SVG Export Plug-In . SVG Version: 6.00 Build 0)  -->
<svg version="1.1" id="Layer_1" xmlns="http://www.w3.org/2000/svg" xmlns:xlink="http://www.w3.org/1999/xlink" x="0px" y="0px"
	 viewBox="0 0 512 512" style="enable-background:new 0 0 512 512;" xml:space="preserve">
<g transform="translate(1 1)">
	<g>
		<g>
			<path d="M506.054,313.027c-15.36-20.48-30.72-20.48-68.267-0.853L364.4,357.4c-10.24,5.973-33.28,7.68-54.613,7.68
				c4.267-7.68,2.56-17.067-5.12-28.16c-13.653-19.627-36.693-31.573-61.44-31.573h-33.28c-17.92,0-34.987-5.12-48.64-15.36
				c-30.791-23.093-78.94,2.035-102.4,17.023v-17.876H-0.826V511h59.733v-25.6H169.84c17.067,0,34.987-1.707,52.053-3.413
				l110.933-17.067c4.267,0,8.533-0.853,11.947-1.707c10.24-1.707,19.627-6.827,28.16-14.507L501.787,347.16
				C512.027,338.627,513.734,323.267,506.054,313.027z M41.84,493.933h-25.6V306.2h25.6V319v166.4V493.933z M491.547,336.067
				L361.84,436.76l-0.853,0.853c-5.973,5.12-11.947,8.533-18.773,9.387h-0.853c-3.413,0.853-5.973,0.853-9.387,0.853l-112.64,17.067
				c-16.213,2.56-33.28,3.413-49.493,3.413H58.907v-140.8c20.48-14.507,68.267-41.813,92.16-23.04
				c16.213,11.947,36.693,18.773,58.88,18.773h33.28c19.627,0,37.547,8.533,48.64,25.6c3.413,5.12,4.267,10.24,3.413,11.947
				c-2.56,4.267-12.8,5.973-23.893,6.827c-2.373,0-4.74,0-6.827,0c-0.914,0-1.78,0-2.56,0h-80.213
				c-26.453,0-42.667,12.8-42.667,34.133c0,5.12,3.413,8.533,8.533,8.533c5.12,0,8.533-3.413,8.533-8.533
				c0-4.267,0-17.067,25.6-17.067h79.36c0.992,0,2.116,0,3.413,0c2.052,0,4.543,0,7.68,0c0.853,0,2.56,0,4.267,0
				c40.107,0.853,77.653,0,97.28-10.24l73.387-45.227c35.84-17.92,39.253-13.653,46.08-3.413
				C494.96,328.387,494.96,333.507,491.547,336.067z"/>
			<path d="M383.174,101.4c18.773,0,34.133-15.36,34.133-34.133s-15.36-34.133-34.133-34.133c-18.773,0-34.133,15.36-34.133,34.133
				S364.4,101.4,383.174,101.4z M383.174,50.2c9.387,0,17.067,7.68,17.067,17.067s-7.68,17.067-17.067,17.067
				s-17.067-7.68-17.067-17.067S373.787,50.2,383.174,50.2z"/>
			<path d="M178.374,264.387c0.853,4.267,4.267,6.827,8.533,6.827h42.667c5.12,0,8.533-3.413,9.387-6.827v-25.6h34.133
				c5.12,0,8.533-3.413,8.533-8.533v-25.6h25.6c5.12,0,8.533-3.413,8.533-8.533v-25.6h25.6c2.56,0,5.12-1.707,6.827-3.413
				c0,0,7.088-8.376,13.425-15.611c4.233,0.713,8.581,1.104,13.029,1.104c42.667,0,76.8-34.133,76.8-76.8
				c0-42.667-34.133-76.8-76.8-76.8s-76.8,34.133-76.8,76.8c0,5.04,0.492,9.955,1.402,14.714L172.4,214.04
				c-2.56,1.707-3.413,5.12-2.56,7.68L178.374,264.387z M374.64,16.067c33.28,0,59.733,26.453,59.733,59.733
				c0,33.28-26.453,59.733-59.733,59.733c-5.241,0-10.311-0.659-15.136-1.894c-21.021-6.115-36.968-22.203-42.037-42.479
				c-0.241-0.724-0.63-1.443-1.106-2.129c-0.942-4.251-1.454-8.674-1.454-13.231C314.907,42.52,341.36,16.067,374.64,16.067z
				 M304.667,108.227c1.763,3.723,3.855,7.256,6.207,10.598c0.023,0.034,0.048,0.068,0.071,0.102
				c0.249,0.353,0.495,0.709,0.75,1.058c7.615,10.873,17.976,19.65,30.122,25.346c-2.338,2.42-3.962,4.8-5.577,6.415h-29.867
				c-5.12,0-8.533,3.413-8.533,8.533v25.6h-25.6c-5.12,0-8.533,3.413-8.533,8.533v25.6h-34.133c-5.12,0-8.533,3.413-8.533,8.533
				v25.6h-27.307l-5.973-30.72L304.667,108.227z"/>
		</g>
	</g>
</g>
<g>
</g>
<g>
</g>
<g>
</g>
<g>
</g>
<g>
</g>
<g>
</g>
<g>
</g>
<g>
</g>
<g>
</g>
<g>
</g>
<g>
</g>
<g>
</g>
<g>
</g>
<g>
</g>
<g>
</g>
</svg>
